<mxfile host="Electron" agent="Mozilla/5.0 (Windows NT 10.0; Win64; x64) AppleWebKit/537.36 (KHTML, like Gecko) draw.io/28.0.6 Chrome/138.0.7204.100 Electron/37.2.3 Safari/537.36" version="28.0.6">
  <diagram name="Strona-1" id="H52WpxfOqCLK4Dhvx1yl">
    <mxGraphModel dx="1984" dy="1250" grid="1" gridSize="10" guides="1" tooltips="1" connect="1" arrows="1" fold="1" page="1" pageScale="1" pageWidth="827" pageHeight="1169" math="0" shadow="0">
      <root>
        <mxCell id="0" />
        <mxCell id="1" parent="0" />
        <mxCell id="aftZomEOeQUgh_xqhKE8-5" style="rounded=0;orthogonalLoop=1;jettySize=auto;html=1;exitX=1;exitY=1;exitDx=0;exitDy=0;entryX=0;entryY=0;entryDx=0;entryDy=0;endArrow=none;endFill=0;" parent="1" source="aftZomEOeQUgh_xqhKE8-1" target="aftZomEOeQUgh_xqhKE8-2" edge="1">
          <mxGeometry relative="1" as="geometry" />
        </mxCell>
        <mxCell id="aftZomEOeQUgh_xqhKE8-1" value="&lt;b&gt;&lt;font style=&quot;font-size: 20px;&quot;&gt;WHY?&lt;/font&gt;&lt;/b&gt;&lt;br&gt;&lt;br&gt;&lt;font style=&quot;font-size: 15px;&quot;&gt;strategy&lt;/font&gt;" style="ellipse;whiteSpace=wrap;html=1;aspect=fixed;" parent="1" vertex="1">
          <mxGeometry x="320" y="80" width="160" height="160" as="geometry" />
        </mxCell>
        <mxCell id="aftZomEOeQUgh_xqhKE8-2" value="&lt;b&gt;&lt;font style=&quot;font-size: 20px;&quot;&gt;HOW?&lt;/font&gt;&lt;/b&gt;&lt;br&gt;&lt;br&gt;&lt;font style=&quot;&quot;&gt;&lt;font style=&quot;font-size: 15px;&quot;&gt;channel/form&lt;br&gt;frequency&lt;/font&gt;&lt;br&gt;&lt;/font&gt;" style="ellipse;whiteSpace=wrap;html=1;aspect=fixed;" parent="1" vertex="1">
          <mxGeometry x="560" y="400" width="160" height="160" as="geometry" />
        </mxCell>
        <mxCell id="aftZomEOeQUgh_xqhKE8-4" style="rounded=0;orthogonalLoop=1;jettySize=auto;html=1;exitX=1;exitY=0;exitDx=0;exitDy=0;entryX=0;entryY=1;entryDx=0;entryDy=0;endArrow=none;endFill=0;" parent="1" source="aftZomEOeQUgh_xqhKE8-3" target="aftZomEOeQUgh_xqhKE8-1" edge="1">
          <mxGeometry relative="1" as="geometry" />
        </mxCell>
        <mxCell id="aftZomEOeQUgh_xqhKE8-6" style="rounded=0;orthogonalLoop=1;jettySize=auto;html=1;exitX=1;exitY=0.5;exitDx=0;exitDy=0;entryX=0;entryY=0.5;entryDx=0;entryDy=0;endArrow=none;endFill=0;" parent="1" source="aftZomEOeQUgh_xqhKE8-3" target="aftZomEOeQUgh_xqhKE8-2" edge="1">
          <mxGeometry relative="1" as="geometry" />
        </mxCell>
        <mxCell id="aftZomEOeQUgh_xqhKE8-3" value="&lt;b&gt;&lt;font style=&quot;font-size: 20px;&quot;&gt;WHAT?&lt;/font&gt;&lt;/b&gt;&lt;br&gt;&lt;br&gt;&lt;font style=&quot;&quot;&gt;&lt;font style=&quot;font-size: 15px;&quot;&gt;arguments/topics&lt;br&gt;competence/expertise&lt;br&gt;caring/empathy&lt;/font&gt;&lt;br&gt;&lt;/font&gt;" style="ellipse;whiteSpace=wrap;html=1;aspect=fixed;" parent="1" vertex="1">
          <mxGeometry x="80" y="400" width="160" height="160" as="geometry" />
        </mxCell>
        <mxCell id="aftZomEOeQUgh_xqhKE8-7" value="&lt;font size=&quot;1&quot; style=&quot;&quot;&gt;&lt;span style=&quot;font-size: 22px;&quot;&gt;&lt;i style=&quot;&quot;&gt;STAKEHOLDERS&lt;/i&gt;&lt;/span&gt;&lt;/font&gt;" style="ellipse;whiteSpace=wrap;html=1;aspect=fixed;" parent="1" vertex="1">
          <mxGeometry x="300" y="260" width="200" height="200" as="geometry" />
        </mxCell>
      </root>
    </mxGraphModel>
  </diagram>
</mxfile>
